HIERARCHY
ROOT Hips
{
	OFFSET 0.00000 0.00000 0.00000
	CHANNELS 6 Xposition Yposition Zposition Zrotation Yrotation Xrotation 
	JOINT RightUpLegDummy
	{
		OFFSET 0 0 0
		CHANNELS 3 Zrotation Yrotation Xrotation
		JOINT RightUpLeg
		{
			OFFSET -3.52197 -3.41223 0.04002
			CHANNELS 3 Zrotation Yrotation Xrotation
			JOINT RightLeg
			{
				OFFSET 0.00006 -17.42390 1.60435
				CHANNELS 3 Zrotation Yrotation Xrotation
				JOINT RightFoot
				{
					OFFSET 0.06154 -16.50078 -1.63900
					CHANNELS 3 Zrotation Yrotation Xrotation
					JOINT RightToes
					{
						OFFSET 0.00298 -1.73825 3.34613
						CHANNELS 3 Zrotation Yrotation Xrotation
						End Site
						{
							OFFSET 0.00480 -0.05416 3.85043
						}
					}
				}
			}
		}
	}
	JOINT SpineDummy
	{
		OFFSET 0 0 0
		CHANNELS 3 Zrotation Yrotation Xrotation
		JOINT Spine
		{
			OFFSET 0.00000 4.68130 0.00000
			CHANNELS 3 Zrotation Yrotation Xrotation
			JOINT Spine1
			{
				OFFSET -0.00000 10.10138 0.05002
				CHANNELS 3 Zrotation Yrotation Xrotation
				JOINT HEadDummy
				{
					OFFSET 0 0 0
					CHANNELS 3 Zrotation Yrotation Xrotation
					JOINT Head
					{
						OFFSET -0.00000 3.43865 0.00438
						CHANNELS 3 Zrotation Yrotation Xrotation
						End Site
						{
							OFFSET -0.11417 5.02924 0.98962
						}
					}
				}
				JOINT LeftShoulder1Dummy
				{
					OFFSET 0 0 0
					CHANNELS 3 Zrotation Yrotation Xrotation
					JOINT LeftShoulder1
					{
						OFFSET 3.53937 -0.14262 -0.08662
						CHANNELS 3 Zrotation Yrotation Xrotation
						JOINT LeftArm
						{
							OFFSET 4.04833 -0.00133 0.12681
							CHANNELS 3 Zrotation Yrotation Xrotation
							JOINT LeftForeArm
							{
								OFFSET 10.33880 -0.01036 -0.55515
								CHANNELS 3 Zrotation Yrotation Xrotation
								JOINT LeftHand
								{
									OFFSET 8.69677 0.07543 0.40060
									CHANNELS 3 Zrotation Yrotation Xrotation
									End Site
									{
										OFFSET 5.28377 -0.21905 0.59205
									}
								}
							}
						}
					}
				}
				JOINT RightShoulderDummy
				{
					OFFSET 0 0 0
					CHANNELS 3 Zrotation Yrotation Xrotation
					JOINT RightShoulder
					{
						OFFSET -3.53937 -0.14262 -0.08660
						CHANNELS 3 Zrotation Yrotation Xrotation
						JOINT RightArm
						{
							OFFSET -4.04833 -0.00133 0.12683
							CHANNELS 3 Zrotation Yrotation Xrotation
							JOINT RightForeArm
							{
								OFFSET -10.37987 -0.01039 -0.55511
								CHANNELS 3 Zrotation Yrotation Xrotation
								JOINT RightHand
								{
									OFFSET -8.67398 0.07538 0.40058
									CHANNELS 3 Zrotation Yrotation Xrotation
									End Site
									{
										OFFSET -5.24810 -0.21916 0.59204
									}
								}
							}
						}
					}
				}
			}
		}
	}
	JOINT LeftUpLegDummy
	{
		OFFSET 0 0 0
		CHANNELS 3 Zrotation Yrotation Xrotation
		JOINT LeftUpLeg
		{
			OFFSET 3.52197 -3.41223 0.04002
			CHANNELS 3 Zrotation Yrotation Xrotation
			JOINT LeftLeg
			{
				OFFSET -0.00012 -17.42399 1.60337
				CHANNELS 3 Zrotation Yrotation Xrotation
				JOINT LeftFoot
				{
					OFFSET -0.09972 -16.50070 -1.63802
					CHANNELS 3 Zrotation Yrotation Xrotation
					JOINT LeftToes
					{
						OFFSET -0.01575 -1.73823 3.34611
						CHANNELS 3 Zrotation Yrotation Xrotation
						End Site
						{
							OFFSET 0.03150 -0.01868 3.85031
						}
					}
				}
			}
		}
	}
}
MOTION
Frames: 9
Frame Time: 0.033333
6.7811 35.6529 15.0050 174.9890 3.5708 -178.3820 0.0000 0.0000 0.0000 -18.5731 -11.1323 -32.8513 -2.3231 -1.2378 52.4012 22.4144 -1.4924 -3.9207 0.0000 0.0000 -0.0000 0.0000 0.0000 0.0000 -6.2027 -0.4274 17.6940 1.9156 -2.2700 15.9772 0.0000 0.0000 0.0000 -2.3049 8.2364 -20.8728 0.0000 0.0000 0.0000 -13.5531 -1.4085 1.0058 -65.4075 -22.3634 25.3081 -1.5861 -58.8155 -5.8807 29.5380 -2.0451 -1.9072 0.0000 0.0000 0.0000 8.0227 0.2905 0.5908 68.0183 4.2150 -14.2869 4.0355 75.5746 -8.2937 -24.0134 4.2554 -1.9883 0.0000 0.0000 0.0000 8.0033 4.3968 -19.4095 6.5402 4.3486 48.5745 -25.1825 -1.4725 -18.4249 0.0000 -0.0000 -0.0000
7.0849 35.1947 14.8980 174.0830 3.5289 -179.9920 0.0000 0.0000 0.0000 -18.4533 -10.5760 -32.9642 -2.8480 -1.4945 53.3222 21.8802 -0.9223 -6.7390 0.0000 0.0000 -0.0000 0.0000 0.0000 0.0000 -6.3301 -0.8833 15.2390 -0.8350 -1.7911 23.5157 0.0000 0.0000 0.0000 -1.3349 8.2613 -21.3046 0.0000 0.0000 0.0000 -11.1709 -4.5196 1.4714 -64.6170 -29.4889 24.6725 -1.4311 -51.9117 -7.9300 28.9469 -1.4411 -1.7174 0.0000 0.0000 0.0000 7.1376 1.3565 0.7171 71.7751 7.5196 -12.2673 3.8382 73.6451 -9.9907 -27.1902 5.2903 -2.5032 0.0000 0.0000 0.0000 7.7628 3.0797 -18.2591 7.8330 4.9743 50.3573 -26.2657 -1.8187 -19.6380 0.0000 -0.0000 -0.0000
7.5924 35.1605 14.6976 173.5220 3.1172 178.4360 0.0000 0.0000 0.0000 -18.1534 -8.9467 -30.6800 -6.9117 -3.8892 53.9421 19.1593 -0.4070 -9.1285 0.0000 0.0000 -0.0000 0.0000 0.0000 0.0000 -6.4071 -1.4073 12.3373 -3.3725 -1.0676 31.0274 0.0000 0.0000 0.0000 0.0262 8.4249 -19.7727 0.0000 0.0000 0.0000 -8.0185 -7.0997 1.6475 -65.1028 -34.0069 22.6254 -1.4555 -47.3811 -10.3528 28.6447 -0.9386 -1.5743 0.0000 0.0000 0.0000 4.8812 2.2229 0.7291 75.7878 12.2757 -5.4912 3.8319 71.1494 -14.0474 -30.0747 5.9659 -2.9579 0.0000 0.0000 0.0000 8.0041 2.0530 -15.5080 8.1643 5.4692 48.9544 -26.7246 -1.8714 -19.7009 0.0000 -0.0000 -0.0000
8.2368 35.6476 14.4984 173.4620 1.3156 177.2670 0.0000 0.0000 0.0000 -17.3131 -7.8537 -26.3344 -9.9012 -6.2504 51.5316 17.9065 -0.1422 -10.6756 0.0000 0.0000 -0.0000 0.0000 0.0000 0.0000 -6.9212 -2.0653 10.7450 -4.3901 -1.0380 35.4212 0.0000 0.0000 0.0000 2.1641 8.4658 -15.4870 0.0000 0.0000 0.0000 -4.1273 -8.3473 1.4339 -68.6268 -34.4150 20.3546 -1.7823 -47.2138 -14.9102 30.1814 -0.6053 -1.5782 0.0000 0.0000 0.0000 0.7844 2.7954 0.5752 80.6923 16.5676 4.5543 5.1660 70.4574 -26.1913 -32.5862 5.9033 -3.2045 0.0000 0.0000 0.0000 8.7463 0.0169 -12.8902 7.1752 5.4172 45.5078 -27.7724 -1.2235 -16.7740 0.0000 -0.0000 -0.0000
8.9066 36.7848 14.2900 173.4010 -0.8714 176.4410 0.0000 0.0000 0.0000 -16.3087 -7.3963 -20.5671 -10.2130 -8.3670 44.6042 18.3085 -0.4101 -9.0371 0.0000 0.0000 -0.0000 0.0000 0.0000 0.0000 -7.2919 -2.5124 10.3531 -5.1416 -0.9379 36.6245 0.0000 0.0000 0.0000 4.6677 8.0507 -8.9849 0.0000 0.0000 0.0000 -0.1682 -8.4252 1.0268 -73.4526 -31.4194 20.2759 -2.2811 -51.1085 -19.6399 32.6872 -0.5692 -1.7051 0.0000 0.0000 0.0000 -4.1003 2.7439 0.3048 85.7334 18.8355 14.0409 9.4103 74.9566 -42.9159 -34.8131 5.5602 -3.3383 0.0000 0.0000 0.0000 8.9290 -4.0631 -10.1916 9.0489 8.6465 40.0988 -29.3769 0.9243 -8.0664 0.0000 -0.0000 -0.0000
9.4762 38.5091 14.0031 173.1950 -1.6865 176.3890 0.0000 0.0000 0.0000 -15.4356 -6.3847 -14.6677 -9.6014 -11.6308 34.0152 18.3082 -1.6479 -1.1007 0.0000 0.0000 -0.0000 0.0000 0.0000 0.0000 -6.8406 -2.2848 9.4666 -6.3162 0.2185 35.9816 0.0000 0.0000 0.0000 6.5261 7.2901 -2.0028 0.0000 0.0000 0.0000 2.9171 -7.9406 0.6735 -76.7190 -26.3295 23.0227 -2.6471 -56.6600 -20.2160 33.8637 -0.6762 -1.8011 0.0000 0.0000 0.0000 -8.7893 1.7094 0.0426 89.3599 19.1684 20.5993 26.2314 83.8342 -43.3308 -36.8360 5.5112 -3.5317 0.0000 0.0000 0.0000 8.1828 -9.0832 -7.1811 13.7447 17.5189 32.9079 -26.4183 4.2284 7.2563 0.0000 -0.0000 -0.0000
9.9133 40.3886 13.6530 173.2630 -1.4325 177.8500 0.0000 0.0000 0.0000 -14.3252 -5.7903 -10.4879 -8.6289 -15.5193 22.0082 17.1549 -3.6825 13.1187 0.0000 0.0000 -0.0000 0.0000 0.0000 0.0000 -5.7482 -1.5120 7.1605 -6.8172 1.6907 34.4328 0.0000 0.0000 0.0000 7.1881 6.0992 3.4626 0.0000 0.0000 0.0000 4.8054 -7.7736 0.4763 -77.9243 -20.0873 26.6578 -2.7312 -61.9565 -16.0634 33.2694 -0.7868 -1.7998 0.0000 0.0000 0.0000 -13.4353 -0.1690 -0.1070 91.1455 18.9463 24.3706 146.7888 85.2962 69.5392 -38.1270 5.5497 -3.6787 0.0000 0.0000 0.0000 7.4921 -11.9536 -5.8784 14.2907 24.6109 24.9662 -17.3335 5.4896 24.5988 0.0000 -0.0000 -0.0000
10.2984 41.9666 13.3783 173.5310 -1.7293 -179.6880 0.0000 0.0000 0.0000 -12.7205 -9.0466 -8.8420 -6.6267 -16.0914 11.3165 16.3840 -5.9391 28.8599 0.0000 0.0000 -0.0000 0.0000 0.0000 0.0000 -5.1105 -0.7643 4.6777 -6.1962 2.2832 32.4015 0.0000 0.0000 0.0000 6.7333 4.2839 6.1466 0.0000 0.0000 0.0000 5.5803 -8.5780 0.4300 -78.0696 -13.7877 29.2123 -2.7378 -66.4606 -11.5207 32.3115 -1.0101 -1.8072 0.0000 0.0000 0.0000 -17.9886 -1.8922 -0.1204 91.5313 19.5910 25.8959 163.2451 81.0331 83.6272 -39.1465 5.7218 -3.8467 0.0000 0.0000 0.0000 6.7470 -9.3270 -7.6035 8.7653 19.7123 17.8359 -10.8193 4.6004 36.1241 0.0000 -0.0000 -0.0000
10.6383 43.1392 13.2897 173.7310 -2.6755 -178.1190 0.0000 0.0000 0.0000 -12.1986 -11.3988 -8.5756 -4.0083 -17.0698 5.8267 17.4546 -8.2773 40.0070 0.0000 0.0000 -0.0000 0.0000 0.0000 0.0000 -4.5829 -0.3888 4.3021 -5.7961 2.3202 30.3136 0.0000 0.0000 0.0000 5.6053 2.3583 6.0434 0.0000 0.0000 0.0000 5.1405 -9.8501 0.5274 -77.4940 -9.2568 30.5090 -2.9686 -69.6697 -10.1431 31.0256 -0.9756 -1.7236 0.0000 0.0000 0.0000 -21.1553 -2.4184 -0.1119 90.6832 21.4052 25.8669 160.7658 81.9398 78.9474 -40.8485 6.2349 -4.2148 0.0000 0.0000 0.0000 4.6050 -3.5311 -9.9997 3.7067 8.5880 14.4534 -10.2478 4.6118 39.3800 0.0000 -0.0000 -0.0000
